<?xml version="1.0" encoding="UTF-8"?>
<svg version="1.1" xmlns="http://www.w3.org/2000/svg" width="473" height="453">
<path d="M0 0 C1.11947469 0.00351175 1.11947469 0.00351175 2.26156503 0.00709444 C3.05088979 0.005641 3.84021455 0.00418756 4.65345824 0.00269008 C7.33254084 -0.00099674 10.0115675 0.00252881 12.69064981 0.00595194 C14.61708224 0.00480118 16.54351446 0.00321396 18.46994621 0.0012247 C23.79029711 -0.00297481 29.11063023 -0.00087515 34.43098122 0.00221092 C40.15837222 0.00446228 45.88576004 0.00098672 51.61315042 -0.00176901 C62.84363787 -0.00622853 74.07411866 -0.00524943 85.30460638 -0.00235637 C94.42738293 -0.00010304 103.5501576 0.0002105 112.67293435 -0.00088018 C113.96860384 -0.00103341 115.26427333 -0.00118665 116.59920552 -0.00134452 C119.23087726 -0.00166423 121.862549 -0.00198844 124.49422073 -0.00231712 C148.49835104 -0.00509096 172.50247774 -0.00220857 196.50660747 0.00302548 C218.43892854 0.0077714 240.37124382 0.00734679 262.30356485 0.00256449 C286.92110763 -0.00278532 311.5386469 -0.00489775 336.15619022 -0.00182325 C338.77848099 -0.00150468 341.40077176 -0.00119031 344.02306253 -0.00088018 C345.95866822 -0.00064877 345.95866822 -0.00064877 347.93337706 -0.00041268 C357.05103139 0.00045275 366.16868366 -0.00101095 375.28633767 -0.00335974 C386.38932867 -0.00615693 397.49231258 -0.00542118 408.59530276 -0.00007899 C414.26618374 0.00255912 419.93705291 0.00356125 425.60793382 0.00027186 C430.79037227 -0.00268887 435.97278785 -0.00110206 441.1552242 0.00424941 C443.0387795 0.00537456 444.9223367 0.00478028 446.8058908 0.00237362 C449.34876604 -0.00062841 451.89156095 0.00241207 454.43443185 0.00709444 C455.18074831 0.00475328 455.92706477 0.00241211 456.69599688 0 C461.7338481 0.01878524 461.7338481 0.01878524 462.84799844 1.13293558 C462.95360875 3.5561155 462.99478227 5.95093772 462.99326211 8.37487894 C462.99830003 9.51144686 462.99830003 9.51144686 463.00343972 10.67097574 C463.01297766 13.18826005 463.01489425 15.70547805 463.01596719 18.22277933 C463.0191778 19.96533842 463.02254172 21.70789722 463.02605325 23.45045573 C463.03205164 27.10821253 463.03389242 30.76594569 463.03330117 34.42370707 C463.03319951 39.11942487 463.04685281 43.81499161 463.06407338 48.51067358 C463.07517139 52.11109722 463.07722106 55.71148409 463.07669145 59.31192309 C463.07787485 61.04354027 463.08231667 62.77515831 463.09002382 64.50675875 C463.09977955 66.92514717 463.09696334 69.34320437 463.09091836 71.76159769 C463.09653787 72.4821937 463.10215738 73.20278971 463.10794717 73.94522196 C463.07631414 78.90461988 463.07631414 78.90461988 460.84799844 81.13293558 C455.04086841 82.34150691 449.26375157 82.26836814 443.35205728 82.24646097 C442.30514925 82.24660842 441.25824122 82.24675586 440.1796087 82.24690777 C436.67012571 82.24621003 433.16069502 82.23836381 429.6512211 82.23059183 C427.12427342 82.22869211 424.59732536 82.2272521 422.07037717 82.22623545 C416.60338489 82.22310841 411.13640887 82.21697442 405.66942292 82.20823771 C397.65229712 82.19551109 389.63517513 82.1890218 381.61804109 82.18421364 C369.18496975 82.17672105 356.75190325 82.16635656 344.31883616 82.15369713 C312.16313897 82.12104337 280.00743463 82.10705878 247.85172191 82.10206538 C245.46549172 82.10168501 243.07926155 82.10125199 240.69303137 82.10081393 C188.97249965 82.09184802 137.25450891 82.20152379 85.53549844 82.63293558 C84.45301497 82.64195776 84.45301497 82.64195776 83.34866315 82.65116221 C71.18724811 82.75294292 59.02580988 82.85487879 46.86461526 82.98046976 C41.9042148 83.03139928 36.94381548 83.07213895 31.98327905 83.10720927 C29.75259277 83.125513 27.52194173 83.14835288 25.29133111 83.1742869 C21.61207982 83.21631314 17.93290736 83.24497194 14.25351602 83.27160746 C13.11876934 83.28754198 11.98402267 83.30347651 10.81488973 83.3198939 C5.09533317 83.34822798 0.22274723 83.1651467 -5.15200156 81.13293558 C-6.8576326 79.42730455 -6.27787768 77.28131428 -6.28753012 75.00618082 C-6.28550589 74.2726388 -6.28348166 73.53909678 -6.28139609 72.78332621 C-6.28314841 72.0142544 -6.28490073 71.24518259 -6.28670615 70.45280558 C-6.29112496 67.89824295 -6.28818658 65.34374897 -6.28481406 62.78918558 C-6.28548709 61.02181077 -6.28645711 59.25443605 -6.28771323 57.48706156 C-6.28919024 53.77802755 -6.28703554 50.06901758 -6.28237265 46.35998636 C-6.27667536 41.59471066 -6.27995435 36.82949127 -6.28594512 32.06421763 C-6.28955064 28.41322501 -6.28841218 24.76224585 -6.28581733 21.11125284 C-6.28514803 19.35369459 -6.28597656 17.59613513 -6.28829688 15.83857828 C-6.29082327 13.38653404 -6.28698302 10.93458228 -6.28139609 8.48254496 C-6.28342032 7.74900294 -6.28544455 7.01546091 -6.28753012 6.25969034 C-6.26218348 0.28535064 -5.96919671 0.02225806 0 0 Z " fill="#FBFBFB" transform="translate(7.1520015597343445,1.8670644164085388)"/>
<path d="M0 0 C0.99 0 1.98 0 3 0 C3 0.66 3 1.32 3 2 C4.16571533 1.99214478 4.16571533 1.99214478 5.35498047 1.98413086 C8.86164549 1.96339844 12.36829763 1.95035179 15.875 1.9375 C17.70998047 1.92493164 17.70998047 1.92493164 19.58203125 1.91210938 C21.33193359 1.90727539 21.33193359 1.90727539 23.1171875 1.90234375 C24.73536377 1.89448853 24.73536377 1.89448853 26.38623047 1.88647461 C29 2 29 2 31 3 C31.12787104 43.70572343 31.25531104 84.41144818 31.38218227 125.11717474 C31.39720047 129.93553838 31.41222219 134.753902 31.42724609 139.57226562 C31.43023671 140.53141413 31.43322732 141.49056263 31.43630856 142.47877623 C31.48458176 157.95824289 31.53313986 173.43770865 31.58180541 188.91717409 C31.63182739 204.83013333 31.68153818 220.74309352 31.73096704 236.65605462 C31.76141529 246.45537034 31.79209907 256.25468526 31.82309544 266.05399926 C31.8443997 272.7966009 31.86539854 279.53920345 31.88616979 286.28180675 C31.89811737 290.15733837 31.91018748 294.0328695 31.92262459 297.90839958 C31.98038987 315.93897183 32.01405084 333.96932152 32 352 C27.56016841 353.06045726 25.83303091 352.81470576 21.82421875 350.53515625 C20.34816162 349.71253296 20.34816162 349.71253296 18.84228516 348.87329102 C17.80120605 348.27572998 16.76012695 347.67816895 15.6875 347.0625 C13.50240185 345.84177932 11.31620359 344.62302576 9.12890625 343.40625 C7.53973389 342.51679687 7.53973389 342.51679687 5.91845703 341.609375 C2.3691779 339.65213491 -1.22887242 337.83057464 -4.875 336.0625 C-13.10475045 332.03426527 -21.14046026 327.65201097 -29.19873047 323.29345703 C-41.33120225 316.73149523 -53.47904463 310.19806847 -65.84765625 304.08984375 C-76.10294118 298.89705882 -76.10294118 298.89705882 -78 297 C-78.0969847 295.43094107 -78.1237165 293.85749849 -78.12304783 292.28544521 C-78.12503888 291.25933587 -78.12702993 290.23322652 -78.12908131 289.17602295 C-78.12616847 288.03499699 -78.12325563 286.89397103 -78.12025452 285.71836853 C-78.12110894 284.51694971 -78.12196337 283.31553089 -78.12284368 282.07770544 C-78.12421189 278.72788054 -78.12106434 275.37811335 -78.11606562 272.0282954 C-78.11176449 268.42159896 -78.1132073 264.81490445 -78.1139679 261.20820618 C-78.11449335 254.95435599 -78.11134435 248.7005162 -78.10573006 242.44666862 C-78.0976179 233.4045516 -78.09500013 224.36243963 -78.09374207 215.32031936 C-78.0915511 200.65161305 -78.0848898 185.98291228 -78.07543945 171.31420898 C-78.06626649 157.06127958 -78.05918509 142.80835168 -78.05493164 128.55541992 C-78.05466892 127.67750595 -78.05440619 126.79959197 -78.05413551 125.89507454 C-78.05283051 121.49102823 -78.05156679 117.08698192 -78.05032361 112.6829356 C-78.0399496 76.12195315 -78.02233007 39.560977 -78 3 C-72.66919818 1.60529292 -68.22953257 0.76395774 -62.66601562 0.86474609 C-61.98209747 0.87420761 -61.29817932 0.88366913 -60.59353638 0.89341736 C-58.36414625 0.92672245 -56.13535664 0.97493447 -53.90625 1.0234375 C-52.34828192 1.04964328 -50.79029774 1.0749071 -49.2322998 1.09927368 C-45.15510488 1.16554647 -41.07825355 1.24451866 -37.00134277 1.32623291 C-32.83175729 1.40752467 -28.66197182 1.47667262 -24.4921875 1.546875 C-16.32788226 1.68610306 -8.1639001 1.83876211 0 2 C0 1.34 0 0.68 0 0 Z " fill="#FBFCFB" transform="translate(256,100)"/>
<path d="M0 0 C1.09287175 -0.00128164 1.09287175 -0.00128164 2.20782173 -0.00258917 C4.66151148 -0.00424291 7.11513363 0.00127569 9.56881714 0.00672913 C11.32278441 0.00701105 13.07675179 0.00685317 14.83071899 0.00628662 C19.6031859 0.00599884 24.37562785 0.01189252 29.14808893 0.01886058 C34.13158194 0.02509725 39.11507547 0.02569816 44.09857178 0.02688599 C53.54040759 0.02999837 62.98223188 0.03821052 72.42406261 0.04823548 C83.17118227 0.05939948 93.91830248 0.06490779 104.66542649 0.06993091 C126.77759848 0.0803932 148.88975941 0.09819148 171.00192261 0.12025452 C171.00192261 10.02025452 171.00192261 19.92025452 171.00192261 30.12025452 C147.97580915 30.16651096 124.94970685 30.20222247 101.92355633 30.22387886 C91.23262134 30.23420062 80.54171571 30.24827812 69.85079956 30.27113342 C60.53487323 30.29103978 51.21896816 30.3039644 41.90302116 30.30843151 C36.96825105 30.31104356 32.03354177 30.31720165 27.09879112 30.33171463 C22.45727173 30.34525507 17.81583842 30.34948435 13.17430115 30.34646988 C11.46785833 30.34702163 9.76141273 30.3510201 8.05498695 30.35866547 C5.73064794 30.36857143 3.40663677 30.36623945 1.08229065 30.36076355 C-0.22020284 30.36260714 -1.52269632 30.36445072 -2.86465931 30.36635017 C-5.99807739 30.12025452 -5.99807739 30.12025452 -8.99807739 28.12025452 C-9.33865356 25.41468811 -9.33865356 25.41468811 -9.29104614 22.01869202 C-9.28137817 20.80697327 -9.27171021 19.59525452 -9.26174927 18.34681702 C-9.23661255 17.07580139 -9.21147583 15.80478577 -9.18557739 14.49525452 C-9.17204224 13.21650452 -9.15850708 11.93775452 -9.14456177 10.62025452 C-9.10910935 7.45317169 -9.0596918 4.2869191 -8.99807739 1.12025452 C-6.01698354 -0.37029241 -3.32682949 -0.00233954 0 0 Z " fill="#D9D9D9" transform="translate(298.9980773925781,101.87974548339844)"/>
<path d="M0 0 C1.11947469 0.00351175 1.11947469 0.00351175 2.26156503 0.00709444 C3.05088979 0.005641 3.84021455 0.00418756 4.65345824 0.00269008 C7.33254084 -0.00099674 10.0115675 0.00252881 12.69064981 0.00595194 C14.61708224 0.00480118 16.54351446 0.00321396 18.46994621 0.0012247 C23.79029711 -0.00297481 29.11063023 -0.00087515 34.43098122 0.00221092 C40.15837222 0.00446228 45.88576004 0.00098672 51.61315042 -0.00176901 C62.84363787 -0.00622853 74.07411866 -0.00524943 85.30460638 -0.00235637 C94.42738293 -0.00010304 103.5501576 0.0002105 112.67293435 -0.00088018 C113.96860384 -0.00103341 115.26427333 -0.00118665 116.59920552 -0.00134452 C119.23087726 -0.00166423 121.862549 -0.00198844 124.49422073 -0.00231712 C148.49835104 -0.00509096 172.50247774 -0.00220857 196.50660747 0.00302548 C218.43892854 0.0077714 240.37124382 0.00734679 262.30356485 0.00256449 C286.92110763 -0.00278532 311.5386469 -0.00489775 336.15619022 -0.00182325 C338.77848099 -0.00150468 341.40077176 -0.00119031 344.02306253 -0.00088018 C345.95866822 -0.00064877 345.95866822 -0.00064877 347.93337706 -0.00041268 C357.05103139 0.00045275 366.16868366 -0.00101095 375.28633767 -0.00335974 C386.38932867 -0.00615693 397.49231258 -0.00542118 408.59530276 -0.00007899 C414.26618374 0.00255912 419.93705291 0.00356125 425.60793382 0.00027186 C430.79037227 -0.00268887 435.97278785 -0.00110206 441.1552242 0.00424941 C443.0387795 0.00537456 444.9223367 0.00478028 446.8058908 0.00237362 C449.34876604 -0.00062841 451.89156095 0.00241207 454.43443185 0.00709444 C455.18074831 0.00475328 455.92706477 0.00241211 456.69599688 0 C461.7338481 0.01878524 461.7338481 0.01878524 462.84799844 1.13293558 C462.95360875 3.5561155 462.99478227 5.95093772 462.99326211 8.37487894 C462.99830003 9.51144686 462.99830003 9.51144686 463.00343972 10.67097574 C463.01297766 13.18826005 463.01489425 15.70547805 463.01596719 18.22277933 C463.0191778 19.96533842 463.02254172 21.70789722 463.02605325 23.45045573 C463.03205164 27.10821253 463.03389242 30.76594569 463.03330117 34.42370707 C463.03319951 39.11942487 463.04685281 43.81499161 463.06407338 48.51067358 C463.07517139 52.11109722 463.07722106 55.71148409 463.07669145 59.31192309 C463.07787485 61.04354027 463.08231667 62.77515831 463.09002382 64.50675875 C463.09977955 66.92514717 463.09696334 69.34320437 463.09091836 71.76159769 C463.09653787 72.4821937 463.10215738 73.20278971 463.10794717 73.94522196 C463.07631414 78.90461988 463.07631414 78.90461988 460.84799844 81.13293558 C455.04086841 82.34150691 449.26375157 82.26836814 443.35205728 82.24646097 C442.30514925 82.24660842 441.25824122 82.24675586 440.1796087 82.24690777 C436.67012571 82.24621003 433.16069502 82.23836381 429.6512211 82.23059183 C427.12427342 82.22869211 424.59732536 82.2272521 422.07037717 82.22623545 C416.60338489 82.22310841 411.13640887 82.21697442 405.66942292 82.20823771 C397.65229712 82.19551109 389.63517513 82.1890218 381.61804109 82.18421364 C369.18496975 82.17672105 356.75190325 82.16635656 344.31883616 82.15369713 C312.16313897 82.12104337 280.00743463 82.10705878 247.85172191 82.10206538 C245.46549172 82.10168501 243.07926155 82.10125199 240.69303137 82.10081393 C188.97249965 82.09184802 137.25450891 82.20152379 85.53549844 82.63293558 C84.45301497 82.64195776 84.45301497 82.64195776 83.34866315 82.65116221 C71.18724811 82.75294292 59.02580988 82.85487879 46.86461526 82.98046976 C41.9042148 83.03139928 36.94381548 83.07213895 31.98327905 83.10720927 C29.75259277 83.125513 27.52194173 83.14835288 25.29133111 83.1742869 C21.61207982 83.21631314 17.93290736 83.24497194 14.25351602 83.27160746 C13.11876934 83.28754198 11.98402267 83.30347651 10.81488973 83.3198939 C5.09533317 83.34822798 0.22274723 83.1651467 -5.15200156 81.13293558 C-6.8576326 79.42730455 -6.27787768 77.28131428 -6.28753012 75.00618082 C-6.28550589 74.2726388 -6.28348166 73.53909678 -6.28139609 72.78332621 C-6.28314841 72.0142544 -6.28490073 71.24518259 -6.28670615 70.45280558 C-6.29112496 67.89824295 -6.28818658 65.34374897 -6.28481406 62.78918558 C-6.28548709 61.02181077 -6.28645711 59.25443605 -6.28771323 57.48706156 C-6.28919024 53.77802755 -6.28703554 50.06901758 -6.28237265 46.35998636 C-6.27667536 41.59471066 -6.27995435 36.82949127 -6.28594512 32.06421763 C-6.28955064 28.41322501 -6.28841218 24.76224585 -6.28581733 21.11125284 C-6.28514803 19.35369459 -6.28597656 17.59613513 -6.28829688 15.83857828 C-6.29082327 13.38653404 -6.28698302 10.93458228 -6.28139609 8.48254496 C-6.28342032 7.74900294 -6.28544455 7.01546091 -6.28753012 6.25969034 C-6.26218348 0.28535064 -5.96919671 0.02225806 0 0 Z M-3.15200156 1.13293558 C-3.15200156 26.87293558 -3.15200156 52.61293558 -3.15200156 79.13293558 C149.96799844 79.13293558 303.08799844 79.13293558 460.84799844 79.13293558 C460.84799844 53.39293558 460.84799844 27.65293558 460.84799844 1.13293558 C307.72799844 1.13293558 154.60799844 1.13293558 -3.15200156 1.13293558 Z " fill="#4F4E4F" transform="translate(7.1520015597343445,1.8670644164085388)"/>
<path d="M0 0 C0.99 0 1.98 0 3 0 C3 0.66 3 1.32 3 2 C4.16571533 1.99214478 4.16571533 1.99214478 5.35498047 1.98413086 C8.86164549 1.96339844 12.36829763 1.95035179 15.875 1.9375 C17.70998047 1.92493164 17.70998047 1.92493164 19.58203125 1.91210938 C21.33193359 1.90727539 21.33193359 1.90727539 23.1171875 1.90234375 C24.73536377 1.89448853 24.73536377 1.89448853 26.38623047 1.88647461 C29 2 29 2 31 3 C31.12787104 43.70572343 31.25531104 84.41144818 31.38218227 125.11717474 C31.39720047 129.93553838 31.41222219 134.753902 31.42724609 139.57226562 C31.43023671 140.53141413 31.43322732 141.49056263 31.43630856 142.47877623 C31.48458176 157.95824289 31.53313986 173.43770865 31.58180541 188.91717409 C31.63182739 204.83013333 31.68153818 220.74309352 31.73096704 236.65605462 C31.76141529 246.45537034 31.79209907 256.25468526 31.82309544 266.05399926 C31.8443997 272.7966009 31.86539854 279.53920345 31.88616979 286.28180675 C31.89811737 290.15733837 31.91018748 294.0328695 31.92262459 297.90839958 C31.98038987 315.93897183 32.01405084 333.96932152 32 352 C27.56016841 353.06045726 25.83303091 352.81470576 21.82421875 350.53515625 C20.34816162 349.71253296 20.34816162 349.71253296 18.84228516 348.87329102 C17.80120605 348.27572998 16.76012695 347.67816895 15.6875 347.0625 C13.50240185 345.84177932 11.31620359 344.62302576 9.12890625 343.40625 C7.53973389 342.51679687 7.53973389 342.51679687 5.91845703 341.609375 C2.3691779 339.65213491 -1.22887242 337.83057464 -4.875 336.0625 C-13.10475045 332.03426527 -21.14046026 327.65201097 -29.19873047 323.29345703 C-41.33120225 316.73149523 -53.47904463 310.19806847 -65.84765625 304.08984375 C-76.10294118 298.89705882 -76.10294118 298.89705882 -78 297 C-78.0969847 295.43094107 -78.1237165 293.85749849 -78.12304783 292.28544521 C-78.12503888 291.25933587 -78.12702993 290.23322652 -78.12908131 289.17602295 C-78.12616847 288.03499699 -78.12325563 286.89397103 -78.12025452 285.71836853 C-78.12110894 284.51694971 -78.12196337 283.31553089 -78.12284368 282.07770544 C-78.12421189 278.72788054 -78.12106434 275.37811335 -78.11606562 272.0282954 C-78.11176449 268.42159896 -78.1132073 264.81490445 -78.1139679 261.20820618 C-78.11449335 254.95435599 -78.11134435 248.7005162 -78.10573006 242.44666862 C-78.0976179 233.4045516 -78.09500013 224.36243963 -78.09374207 215.32031936 C-78.0915511 200.65161305 -78.0848898 185.98291228 -78.07543945 171.31420898 C-78.06626649 157.06127958 -78.05918509 142.80835168 -78.05493164 128.55541992 C-78.05466892 127.67750595 -78.05440619 126.79959197 -78.05413551 125.89507454 C-78.05283051 121.49102823 -78.05156679 117.08698192 -78.05032361 112.6829356 C-78.0399496 76.12195315 -78.02233007 39.560977 -78 3 C-72.66919818 1.60529292 -68.22953257 0.76395774 -62.66601562 0.86474609 C-61.98209747 0.87420761 -61.29817932 0.88366913 -60.59353638 0.89341736 C-58.36414625 0.92672245 -56.13535664 0.97493447 -53.90625 1.0234375 C-52.34828192 1.04964328 -50.79029774 1.0749071 -49.2322998 1.09927368 C-45.15510488 1.16554647 -41.07825355 1.24451866 -37.00134277 1.32623291 C-32.83175729 1.40752467 -28.66197182 1.47667262 -24.4921875 1.546875 C-16.32788226 1.68610306 -8.1639001 1.83876211 0 2 C0 1.34 0 0.68 0 0 Z M-76 4 C-76.17630225 41.11399726 -76.32403837 78.22760023 -76.40852264 115.34189628 C-76.41852852 119.72166531 -76.42888307 124.10143346 -76.43945312 128.48120117 C-76.44155161 129.35314913 -76.44365009 130.22509709 -76.44581217 131.12346772 C-76.48064083 145.24958829 -76.54372718 159.3754489 -76.61722237 173.50141516 C-76.69198468 187.99157209 -76.7364596 202.48159271 -76.75270796 216.97193462 C-76.76369554 225.91637214 -76.79842044 234.86007499 -76.86333174 243.8042864 C-76.9055583 249.93429694 -76.91841496 256.06392666 -76.90801102 262.19407215 C-76.90287684 265.73333645 -76.9108482 269.27131551 -76.9536438 272.81035233 C-76.99967784 276.64513984 -76.98394192 280.47824406 -76.96203613 284.3132782 C-76.98533886 285.43487089 -77.0086416 286.55646359 -77.03265047 287.71204394 C-77.0787643 293.25356564 -77.0787643 293.25356564 -74.28360653 297.75831759 C-72.23259224 299.06593079 -70.23760867 300.05434024 -68 301 C-66.7735402 301.65437894 -65.55069375 302.31558719 -64.33203125 302.984375 C-62.58986328 303.85835938 -62.58986328 303.85835938 -60.8125 304.75 C-59.05873047 305.63945313 -59.05873047 305.63945313 -57.26953125 306.546875 C-54.43443578 307.80691743 -52.05234164 308.56313001 -49 309 C-49 309.66 -49 310.32 -49 311 C-47.90300781 311.54269531 -46.80601562 312.08539063 -45.67578125 312.64453125 C-44.22130061 313.3670797 -42.7668765 314.08974196 -41.3125 314.8125 C-40.59126953 315.16892578 -39.87003906 315.52535156 -39.12695312 315.89257812 C-36.06651897 317.41580791 -33.11840209 318.92468358 -30.23046875 320.76171875 C-27.84232273 322.3235886 -27.84232273 322.3235886 -24 322 C-24 322.66 -24 323.32 -24 324 C-23.31292969 324.25394531 -22.62585938 324.50789063 -21.91796875 324.76953125 C-20.56638672 325.28580078 -20.56638672 325.28580078 -19.1875 325.8125 C-18.29417969 326.14894531 -17.40085938 326.48539062 -16.48046875 326.83203125 C-14.0403755 327.98098854 -12.80419535 329.05063951 -11 331 C-7.24249383 333.15856737 -5.39997916 334 -1 334 C-1 334.66 -1 335.32 -1 336 C1.74272401 337.5135972 4.49525633 339.00840709 7.25 340.5 C8.02730469 340.92925781 8.80460937 341.35851562 9.60546875 341.80078125 C10.35957031 342.20683594 11.11367188 342.61289062 11.890625 343.03125 C12.58188477 343.40830078 13.27314453 343.78535156 13.98535156 344.17382812 C16.25390537 345.2529457 16.25390537 345.2529457 20 345 C20 345.66 20 346.32 20 347 C23.37097383 348.49821059 25.20442119 349 29 349 C29 235.15 29 121.3 29 4 C-5.65 4 -40.3 4 -76 4 Z " fill="#313031" transform="translate(256,100)"/>
<path d="M0 0 C0.33 0 0.66 0 1 0 C1.33 26.07 1.66 52.14 2 79 C231.68 79.495 231.68 79.495 466 80 C466 80.33 466 80.66 466 81 C460.13361829 82.01672404 454.44994882 82.13555927 448.50405884 82.11352539 C447.45715081 82.11367283 446.41024278 82.11382028 445.33161026 82.11397219 C441.82212727 82.11327445 438.31269658 82.10542822 434.80322266 82.09765625 C432.27627498 82.09575653 429.74932692 82.09431652 427.22237873 82.09329987 C421.75538645 82.09017282 416.28841043 82.08403883 410.82142448 82.07530212 C402.80429868 82.06257551 394.78717669 82.05608622 386.77004265 82.05127805 C374.33697131 82.04378546 361.90390481 82.03342098 349.47083772 82.02076155 C317.31514052 81.98810778 285.15943619 81.9741232 253.00372347 81.9691298 C250.61749328 81.96874943 248.23126311 81.96831641 245.84503293 81.96787834 C194.12450121 81.95891244 142.40651047 82.0685882 90.6875 82.5 C89.60501653 82.50902218 89.60501653 82.50902218 88.50066471 82.51822662 C76.33924967 82.62000734 64.17781144 82.72194321 52.01661682 82.84753418 C47.05621636 82.8984637 42.09581704 82.93920336 37.13528061 82.97427368 C34.90459433 82.99257742 32.67394329 83.0154173 30.44333267 83.04135132 C26.76408138 83.08337756 23.08490892 83.11203635 19.40551758 83.13867188 C18.2707709 83.1546064 17.13602423 83.17054092 15.96689129 83.18695831 C10.24733473 83.2152924 5.37474879 83.03221112 0 81 C-1.70563104 79.29436896 -1.12587612 77.1483787 -1.13552856 74.87324524 C-1.13350433 74.13970322 -1.1314801 73.40616119 -1.12939453 72.65039062 C-1.13114685 71.88131882 -1.13289917 71.11224701 -1.13470459 70.31987 C-1.1391234 67.76530737 -1.13618502 65.21081339 -1.1328125 62.65625 C-1.13348553 60.88887519 -1.13445555 59.12150047 -1.13571167 57.35412598 C-1.13718868 53.64509197 -1.13503398 49.936082 -1.13037109 46.22705078 C-1.1246738 41.46177507 -1.12795279 36.69655568 -1.13394356 31.93128204 C-1.13754908 28.28028943 -1.13641062 24.62931027 -1.13381577 20.97831726 C-1.13314647 19.22075901 -1.133975 17.46319955 -1.13629532 15.7056427 C-1.13882171 13.25359846 -1.13498146 10.80164669 -1.12939453 8.34960938 C-1.13141876 7.61606735 -1.13344299 6.88252533 -1.13552856 6.12675476 C-1.11426264 1.11426264 -1.11426264 1.11426264 0 0 Z " fill="#060606" transform="translate(2,2)"/>
<path d="M0 0 C58.41 0 116.82 0 177 0 C177 8.58 177 17.16 177 26 C118.59 26 60.18 26 0 26 C0 17.42 0 8.84 0 0 Z M1 1 C1 8.92 1 16.84 1 25 C58.42 24.67 115.84 24.34 175 24 C175 16.41 175 8.82 175 1 C117.58 1 60.16 1 1 1 Z " fill="#C4C4C5" transform="translate(292,104)"/>
<path d="M0 0 C0.99 0 1.98 0 3 0 C3 0.66 3 1.32 3 2 C11.58 2 20.16 2 29 2 C29 2.33 29 2.66 29 3 C-5.65 3 -40.3 3 -76 3 C-71.65874898 0.82937449 -69.70360088 0.78140558 -64.93652344 0.86474609 C-63.88226166 0.87893837 -63.88226166 0.87893837 -62.80670166 0.89341736 C-60.49065673 0.92701321 -58.1751563 0.9751499 -55.859375 1.0234375 C-54.25084849 1.04961312 -52.64230695 1.07487945 -51.03375244 1.09927368 C-46.80526672 1.16584157 -42.5770981 1.24475219 -38.34887695 1.32623291 C-34.03218737 1.4072342 -29.71531209 1.47656373 -25.3984375 1.546875 C-16.93206623 1.68649241 -8.46599435 1.83914935 0 2 C0 1.34 0 0.68 0 0 Z " fill="#000000" transform="translate(256,100)"/>
<path d="M0 0 C4.18596821 0.52324603 7.37406931 2.09058783 11.03515625 4.0625 C13.01155698 5.00551426 14.86382253 5.54326718 17 6 C17 6.66 17 7.32 17 8 C17.84820312 8.25523437 18.69640625 8.51046875 19.5703125 8.7734375 C23.23752093 10.08494484 26.46574557 11.74643123 29.875 13.625 C31.02742188 14.25664062 32.17984375 14.88828125 33.3671875 15.5390625 C34.67042969 16.26222656 34.67042969 16.26222656 36 17 C36 17.66 36 18.32 36 19 C30.54388788 17.41851822 25.78985314 14.92414805 20.8125 12.25 C19.97549561 11.80479004 19.13849121 11.35958008 18.27612305 10.90087891 C12.16153068 7.64236317 6.06382598 4.35213751 0 1 C0 0.67 0 0.34 0 0 Z " fill="#0E0E0E" transform="translate(238,428)"/>
<path d="M0 0 C0.66 0 1.32 0 2 0 C2 0.66 2 1.32 2 2 C3.65 2.33 5.3 2.66 7 3 C7 3.99 7 4.98 7 6 C2.25 4.125 2.25 4.125 0 3 C0 2.01 0 1.02 0 0 Z " fill="#201F20" transform="translate(274,445)"/>
</svg>
